<svg id="Capa_1" enable-background="new 0 0 512 512" height="512" viewBox="0 0 512 512" width="512" xmlns="http://www.w3.org/2000/svg" xmlns:xlink="http://www.w3.org/1999/xlink"><radialGradient id="SVGID_1_" cx="131.002" cy="331.777" gradientUnits="userSpaceOnUse" r="132.324"><stop offset="0" stop-color="#e4989d"/><stop offset=".1925" stop-color="#e38d93"/><stop offset=".5311" stop-color="#df6f79"/><stop offset=".6532" stop-color="#dd636e"/><stop offset="1" stop-color="#da4a54"/></radialGradient><linearGradient id="lg1"><stop offset="0" stop-color="#fbe2dd"/><stop offset=".5145" stop-color="#eab1b7"/><stop offset="1" stop-color="#e4989d"/></linearGradient><radialGradient id="SVGID_2_" cx="297.007" cy="46.401" gradientUnits="userSpaceOnUse" r="112.265" xlink:href="#lg1"/><radialGradient id="SVGID_3_" cx="32.597" cy="84.908" gradientUnits="userSpaceOnUse" r="251.234" xlink:href="#lg1"/><radialGradient id="SVGID_4_" cx="408.449" cy="198.135" gradientTransform="matrix(1 0 0 .816 0 36.431)" gradientUnits="userSpaceOnUse" r="339.994"><stop offset=".0988" stop-color="#dd636e"/><stop offset=".5649" stop-color="#d82e3d"/><stop offset=".6885" stop-color="#d32e3b"/><stop offset=".8402" stop-color="#c42f37"/><stop offset="1" stop-color="#ac3030"/></radialGradient><radialGradient id="SVGID_5_" cx="352.827" cy="1080.606" gradientTransform="matrix(.931 0 0 .112 -75.044 312.617)" gradientUnits="userSpaceOnUse" r="198.326"><stop offset="0" stop-color="#eab1b7"/><stop offset=".1527" stop-color="#eebdc1"/><stop offset=".4962" stop-color="#f6d3d5"/><stop offset=".888" stop-color="#fff"/></radialGradient><g><path d="m291.357 433.134s-1.534-79.368-21.304-127.456l-160.973 44.924c55.571 49.652 111.563 82.532 111.563 82.532z" fill="url(#SVGID_1_)"/><path d="m220.643 124.228c17.802-40.587 58.339-68.937 105.498-68.937h70.714c-47.159 0-70.303 52.546-88.106 93.133z" fill="url(#SVGID_2_)"/><path d="m185.859 55.292h-70.714c-63.593 0-115.145 51.552-115.145 115.145 0 66.064 54.336 131.253 109.08 180.165h147.092c-45.709-111.185-114.706-295.31-70.313-295.31z" fill="url(#SVGID_3_)"/><path d="m512 170.437c0-63.593-51.552-115.145-115.145-115.145-47.159 0-87.695 28.35-105.498 68.937-17.802-40.587-58.339-68.937-105.498-68.937-63.593 0-115.145 51.552-115.145 115.145 0 133.127 220.643 262.697 220.643 262.697s220.643-129.57 220.643-262.697z" fill="url(#SVGID_4_)"/><path d="m256 456.708c106.27 0 192.419-10.555 192.419-23.574h-384.838c0 13.02 86.149 23.574 192.419 23.574z" fill="url(#SVGID_5_)"/></g></svg>